<?xml version="1.0" encoding="iso-8859-1"?>
<!-- Generator: Adobe Illustrator 19.0.0, SVG Export Plug-In . SVG Version: 6.00 Build 0)  -->
<!-- from https://www.svgrepo.com/svg/112103/asteroid -->
<svg version="1.1" id="Layer_1" xmlns="http://www.w3.org/2000/svg" xmlns:xlink="http://www.w3.org/1999/xlink" x="0px" y="0px"
	 viewBox="0 0 267.057 267.057" style="enable-background:new 0 0 267.057 267.057;" xml:space="preserve">
<g>
	<g>
		<g>
			<g>
				<g>
					<path style="fill:#4EFFBB;" d="M67.27,184.63c-11.842,11.984-11.842,31.485,0,43.466c11.845,11.984,31.118,11.984,42.96,0
						s11.842-31.482-0.003-43.466C98.385,172.649,79.112,172.649,67.27,184.63z"/>
				</g>
			</g>
			<path style="fill:#4EFFBB;" d="M251.054,115.605c-2.81-2.84-7.369-2.821-10.151,0.047L121.11,239.121
				c-17.848,18.051-46.882,18.048-64.728-0.008c-17.848-18.06-17.845-47.441,0-65.498L177.33,51.236c2.79-2.824,2.79-7.402,0-10.226
				c-2.79-2.824-7.316-2.824-10.106,0L46.279,163.391c-23.42,23.696-23.42,62.254,0,85.95c23.401,23.676,61.562,23.584,84.988-0.056
				l0.006,0.006l119.83-123.51C253.847,122.952,253.825,118.412,251.054,115.605z"/>
			<g>
				<g>
					<path style="fill:#4EFFBB;" d="M156.948,110.1c2.79,2.824,7.316,2.824,10.106,0l82.111-83.082c2.79-2.824,2.79-7.402,0-10.226
						s-7.316-2.824-10.106,0l-82.111,83.085C154.158,102.7,154.158,107.276,156.948,110.1z"/>
				</g>
			</g>
			<g>
				<g>
					<path style="fill:#4EFFBB;" d="M211.689,95.615l-44.634,45.163c-2.79,2.824-2.79,7.402,0,10.226s7.316,2.824,10.106,0
						l44.634-45.163c2.79-2.824,2.79-7.402,0-10.226C219.005,92.791,214.479,92.791,211.689,95.615z"/>
				</g>
			</g>
		</g>
		<g>
			<g id="XMLID_7_">
				<g>
					<g>
						<path style="fill:#222051;" d="M233.843,2.109c-2.787-2.812-7.311-2.812-10.098,0l-56.627,57.283
							c-2.776,2.81-2.76,7.325,0.039,10.112l0,0c2.829,2.818,7.422,2.801,10.229-0.039l56.457-57.114
							C236.631,9.54,236.631,4.958,233.843,2.109z"/>
					</g>
					<g>
						<path style="fill:#222051;" d="M147.901,78.807l-6.009,6.123c-2.529,2.576-3.146,6.674-1.046,9.606
							c2.657,3.711,7.834,4.006,10.891,0.899l6.468-6.59c2.765-2.818,2.732-7.333-0.075-10.112l0,0
							C155.29,75.925,150.7,75.958,147.901,78.807z"/>
					</g>
					<g>
						<path style="fill:#222051;" d="M206.476,80.943c2.787,2.812,2.787,7.394,0,10.243l-44.632,45.149
							c-2.787,2.812-7.313,2.812-10.137,0c-2.787-2.812-2.787-7.394,0-10.243l44.634-45.149
							C199.165,78.131,203.688,78.131,206.476,80.943z"/>
					</g>
					<path style="fill:#222051;" d="M235.726,100.923c-2.824-2.849-7.386-2.812-10.137,0.072L105.771,224.436
						c-1.664,1.694-3.438,3.246-5.285,4.615c-17.918,13.308-43.257,11.756-59.439-4.615c-17.845-18.068-17.845-47.422,0-65.49
						l25.607-25.915c2.748-2.779,2.729-7.247-0.039-10.006l-0.103-0.1c-2.801-2.79-7.344-2.771-10.123,0.039l-24.277,24.564
						c-23.782,24.06-24.611,64.246-0.417,87.892c23.459,22.931,61.064,22.566,84.242-0.821l0.006,0.006l119.819-123.477
						C238.514,108.278,238.514,103.735,235.726,100.923z"/>
					<g>
						<path style="fill:#222051;" d="M99.375,79.472l-23.91,24.191c-2.746,2.779-2.729,7.244,0.039,10.001l0.106,0.106
							c2.799,2.787,7.341,2.771,10.117-0.039l23.907-24.194c2.735-2.768,2.726-7.202-0.008-9.97c-0.033-0.033-0.067-0.067-0.1-0.103
							C106.733,76.643,102.165,76.651,99.375,79.472z"/>
					</g>
					<g>
						<path style="fill:#222051;" d="M161.989,26.345c-2.787-2.812-7.313-2.812-10.101,0l-33.438,33.83
							c-2.735,2.765-2.723,7.202,0.011,9.967c0.033,0.033,0.067,0.067,0.1,0.103c2.787,2.821,7.355,2.81,10.143-0.011l33.285-33.685
							C164.776,33.736,164.776,29.157,161.989,26.345z"/>
					</g>
					<g>
						<path style="fill:#222051;" d="M94.91,169.945c11.837,12.009,11.837,31.482,0,43.491c-11.837,11.973-31.131,11.973-42.968,0
							c-11.837-12.009-11.837-31.482,0-43.491C63.779,157.972,83.038,157.972,94.91,169.945z M84.812,203.194
							c6.262-6.348,6.262-16.66-0.036-23.008c-6.262-6.348-16.471-6.348-22.733,0s-6.262,16.66,0,23.008
							C68.305,209.542,78.512,209.542,84.812,203.194z"/>
					</g>
					<g>
						<path style="fill:#302C58;" d="M84.776,180.188c6.298,6.348,6.298,16.66,0.036,23.008c-6.298,6.348-16.507,6.348-22.769,0
							c-6.262-6.348-6.262-16.66,0-23.008C68.305,173.84,78.512,173.84,84.776,180.188z"/>
					</g>
				</g>
			</g>
		</g>
	</g>
</g>
<g>
</g>
<g>
</g>
<g>
</g>
<g>
</g>
<g>
</g>
<g>
</g>
<g>
</g>
<g>
</g>
<g>
</g>
<g>
</g>
<g>
</g>
<g>
</g>
<g>
</g>
<g>
</g>
<g>
</g>
</svg>
